<?xml version="1.0" standalone="no"?>
<!DOCTYPE svg PUBLIC "-//W3C//DTD SVG 1.1//EN" "http://www.w3.org/Graphics/SVG/1.1/DTD/svg11.dtd" >
<!--
2013-9-30: Created.
-->
<svg>
<metadata>
Created by iconfont
</metadata>
<defs>

<font id="iconfont" horiz-adv-x="1024" >
  <font-face
    font-family="iconfont"
    font-weight="500"
    font-stretch="normal"
    units-per-em="1024"
    ascent="896"
    descent="-128"
  />
    <missing-glyph />
    
    <glyph glyph-name="D" unicode="&#58988;" d="M435.600059 128.88421800000003a259.710145 259.710145 0 1 1 197.441068 480.431537 259.710145 259.710145 0 1 1-197.441068-480.431537ZM615.884058 421.101449h-4.452174l-415.536232 118.724638c-5.936232 1.484058-8.904348 5.936232-10.388406 11.872464-1.484058 5.936232 1.484058 11.872464 5.936232 14.840579l267.130435 192.927537c4.452174 2.968116 8.904348 2.968116 13.356522 2.968116l415.536232-118.724638c5.936232-1.484058 8.904348-5.936232 10.388405-11.872464 1.484058-5.936232-1.484058-11.872464-5.936231-14.84058l-267.130435-192.927536c-2.968116-1.484058-5.936232-2.968116-8.904348-2.968116z m-381.402899 139.50145l379.918841-108.336232 235.965217 170.666666-379.91884 108.336232-235.965218-170.666666zM309.411246 236.92985499999998l44.492058 32.159536 17.39316-24.041739-44.492058-32.174377zM402.17971 266.75942l-17.808696 23.744928 74.202899 53.426087c2.968116 2.968116 8.904348 2.968116 13.356522 2.968116l89.043478-25.228986-7.42029-28.197101-81.623188 23.744927-69.750725-50.457971zM582.121739 283.90029000000004l8.162319 28.538435 74.188058-21.207189-8.162319-28.538435zM686.361971 253.99652200000003l8.147478 28.538435 59.926261-17.126029-8.162319-28.538435zM615.884058 5.5652169999999614h-4.452174l-415.536232 118.724638c-5.936232 1.484058-8.904348 5.936232-10.388406 11.872464-1.484058 5.936232 1.484058 11.872464 5.936232 14.84058l89.043479 63.814492 17.808695-23.744927-63.814493-46.005797 379.918841-108.336232 235.965217 170.666666-74.202898 20.776812 7.42029 28.197101 103.884058-29.681159c5.936232-1.484058 8.904348-5.936232 10.388405-11.872464 1.484058-5.936232-1.484058-11.872464-5.936231-14.840579l-267.130435-192.927537c-2.968116 0-5.936232-1.484058-8.904348-1.484058zM185.507246 554.666667h29.68116v-415.536232h-29.68116zM601.043478 435.942029h29.68116v-415.536232h-29.68116zM452.637681 421.101449h29.68116v-89.043478h-29.68116zM452.637681 524.985507h29.68116v-74.202898h-29.68116zM452.637681 614.028986h29.68116v-59.362319h-29.68116zM452.637681 747.594203h29.68116v-103.884058h-29.68116zM868.173913 628.869565h29.681159v-415.536232h-29.681159zM660.405797 20.405797000000007c0-25.228986-19.292754-44.521739-44.521739-44.521739s-44.521739 19.292754-44.521739 44.521739 19.292754 44.521739 44.521739 44.521739 44.521739-19.292754 44.521739-44.521739zM615.884058-38.95652199999995c-32.649275 0-59.362319 26.713043-59.362319 59.362319s26.713043 59.362319 59.362319 59.362319 59.362319-26.713043 59.362319-59.362319-26.713043-59.362319-59.362319-59.362319z m0 89.043479c-16.324638 0-29.681159-13.356522-29.681159-29.68116s13.356522-29.681159 29.681159-29.681159 29.681159 13.356522 29.681159 29.681159-13.356522 29.681159-29.681159 29.68116zM927.536232 213.33333300000004c0-25.228986-19.292754-44.521739-44.521739-44.521739s-44.521739 19.292754-44.521739 44.521739 19.292754 44.521739 44.521739 44.521739 44.521739-19.292754 44.521739-44.521739zM883.014493 153.97101399999997c-32.649275 0-59.362319 26.713043-59.362319 59.362319s26.713043 59.362319 59.362319 59.362319 59.362319-26.713043 59.362319-59.362319-26.713043-59.362319-59.362319-59.362319z m0 89.043479c-16.324638 0-29.681159-13.356522-29.68116-29.68116s13.356522-29.681159 29.68116-29.681159 29.681159 13.356522 29.681159 29.681159-13.356522 29.681159-29.681159 29.68116zM512 332.05797099999995c0-25.228986-19.292754-44.521739-44.521739-44.521739s-44.521739 19.292754-44.521739 44.521739 19.292754 44.521739 44.521739 44.521739 44.521739-19.292754 44.521739-44.521739zM467.478261 272.695652c-32.649275 0-59.362319 26.713043-59.362319 59.362319s26.713043 59.362319 59.362319 59.362319 59.362319-26.713043 59.362319-59.362319-26.713043-59.362319-59.362319-59.362319z m0 89.043478c-16.324638 0-29.681159-13.356522-29.68116-29.681159s13.356522-29.681159 29.68116-29.681159 29.681159 13.356522 29.681159 29.681159-13.356522 29.681159-29.681159 29.681159zM244.869565 139.13043500000003c0-25.228986-19.292754-44.521739-44.521739-44.521739s-44.521739 19.292754-44.521739 44.521739 19.292754 44.521739 44.521739 44.521739 44.521739-19.292754 44.521739-44.521739zM200.347826 79.76811599999996c-32.649275 0-59.362319 26.713043-59.362319 59.362319s26.713043 59.362319 59.362319 59.362319 59.362319-26.713043 59.362319-59.362319-26.713043-59.362319-59.362319-59.362319z m0 89.043478c-16.324638 0-29.681159-13.356522-29.681159-29.681159s13.356522-29.681159 29.681159-29.68116 29.681159 13.356522 29.68116 29.68116-13.356522 29.681159-29.68116 29.681159zM244.869565 554.666667c0-25.228986-19.292754-44.521739-44.521739-44.521739s-44.521739 19.292754-44.521739 44.521739 19.292754 44.521739 44.521739 44.521739 44.521739-19.292754 44.521739-44.521739zM200.347826 495.304348c-32.649275 0-59.362319 26.713043-59.362319 59.362319s26.713043 59.362319 59.362319 59.362319 59.362319-26.713043 59.362319-59.362319c0-16.324638-5.936232-31.165217-17.808696-41.553624-10.388406-11.872464-25.228986-17.808696-41.553623-17.808695z m0 89.043478c-16.324638 0-29.681159-13.356522-29.681159-29.681159s13.356522-29.681159 29.681159-29.68116c7.42029 0 14.84058 2.968116 20.776812 8.904348 5.936232 5.936232 8.904348 13.356522 8.904348 20.776812 0 16.324638-13.356522 29.681159-29.68116 29.681159zM512 747.594203c0-25.228986-19.292754-44.521739-44.521739-44.521739s-44.521739 19.292754-44.521739 44.521739 19.292754 44.521739 44.521739 44.521739 44.521739-19.292754 44.521739-44.521739zM467.478261 688.231884c-16.324638 0-31.165217 5.936232-41.553623 17.808696-11.872464 11.872464-17.808696 26.713043-17.808696 41.553623 0 32.649275 26.713043 59.362319 59.362319 59.362319s59.362319-26.713043 59.362319-59.362319-26.713043-59.362319-59.362319-59.362319z m0 89.043478c-16.324638 0-29.681159-13.356522-29.68116-29.681159 0-7.42029 2.968116-14.84058 8.904348-20.776812 5.936232-5.936232 13.356522-8.904348 20.776812-8.904348 16.324638 0 29.681159 13.356522 29.681159 29.68116s-13.356522 29.681159-29.681159 29.681159zM927.536232 628.869565c0-25.228986-19.292754-44.521739-44.521739-44.521739s-44.521739 19.292754-44.521739 44.521739 19.292754 44.521739 44.521739 44.521739 44.521739-19.292754 44.521739-44.521739zM883.014493 569.507246c-32.649275 0-59.362319 26.713043-59.362319 59.362319s26.713043 59.362319 59.362319 59.362319 59.362319-26.713043 59.362319-59.362319-26.713043-59.362319-59.362319-59.362319z m0 89.043479c-16.324638 0-29.681159-13.356522-29.68116-29.68116s13.356522-29.681159 29.68116-29.681159 29.681159 13.356522 29.681159 29.681159-13.356522 29.681159-29.681159 29.68116zM660.405797 435.942029c0-25.228986-19.292754-44.521739-44.521739-44.521739s-44.521739 19.292754-44.521739 44.521739 19.292754 44.521739 44.521739 44.521739 44.521739-19.292754 44.521739-44.521739zM615.884058 376.57971c-32.649275 0-59.362319 26.713043-59.362319 59.362319s26.713043 59.362319 59.362319 59.362319 59.362319-26.713043 59.362319-59.362319-26.713043-59.362319-59.362319-59.362319z m0 89.043478c-16.324638 0-29.681159-13.356522-29.681159-29.681159s13.356522-29.681159 29.681159-29.681159 29.681159 13.356522 29.681159 29.681159-13.356522 29.681159-29.681159 29.681159z"  horiz-adv-x="1083" />

    
    <glyph glyph-name="sidebar_back_hov" unicode="&#59017;" d="M989.82211545 480.35625C1055.63461545 441.11538455 1136.375 335.30913454999995 1169.96923089 207.91586544999996c33.5942309-127.38028821 28.03846179-241.45528821 28.03846179-241.4552882s-43.49855731 70.23894269-61.13942358 94.86346096c-17.62788455 24.6375-91.94278821 116.38557724-207.27692276 169.55480813-115.34711545 53.18221179-308.1375 43.70625-308.1375 43.70625v-221.42596179L90.125 429.51057724 621.45384634 805.875v-223.46394269s127.63990366-9.6057691 194.36105732-23.43028821c112.3745191-23.2745191 174.00721179-78.62451911 174.00721179-78.6245191z"  horiz-adv-x="1354" />

    
    <glyph glyph-name="yaowan" unicode="&#58880;" d="M512 588.91388833L512 179.08611167000004l-307.00879383 0c-112.95606565 0-204.55184966 91.59578401-204.91388833 204.91388833 0 112.95606565 91.59578401 204.55184966 204.91388833 204.91388833l307.00879383 0zM512 179.08611167000004l0 409.82777666 307.00879383 0c112.95606565 0 204.55184966-91.59578401 204.91388833-204.91388833 0-112.95606565-91.59578401-204.55184966-204.91388833-204.91388833l-307.00879383 0zM593.82073986 260.90685153000004m21.72232032-21.72232032a30.72 30.72 0 1 1-43.44464063 43.44464064 30.72 30.72 0 1 1 43.44464063-43.44464064ZM849.78208095 261.2688902c0-16.65377891-14.11950821-30.77328712-30.77328712-30.77328711l-143.3673141 0c-16.65377891 0-30.77328712 14.11950821-30.77328712 30.77328711s14.11950821 30.77328712 30.77328712 30.77328712l143.3673141 0c17.01581758-0.36203867 30.77328712-14.11950821 30.77328712-30.77328712z"  horiz-adv-x="1024" />

    
    <glyph glyph-name="guanbi" unicode="&#59106;" d="M571.904 394.24L885.76 708.096c15.872 15.872 15.872 41.984 0 57.856l-1.536 1.536c-15.872 15.872-41.984 15.872-57.856 0L512 453.632 198.144 768c-15.872 15.872-41.984 15.872-57.856 0l-1.536-1.536a40.192 40.192 0 0 1 0-57.856L452.608 394.24l-313.856-313.856c-15.872-15.872-15.872-41.984 0-57.856l1.536-1.536c15.872-15.872 41.984-15.872 57.856 0l313.856 313.856 313.856-313.856c15.872-15.872 41.984-15.872 57.856 0l1.536 1.536c15.872 15.872 15.872 41.984 0 57.856L571.904 394.24z"  horiz-adv-x="1024" />

    
    <glyph glyph-name="zengjia" unicode="&#58913;" d="M860.16-128H163.84c-90.48576 0-163.84 73.35424-163.84 163.84V732.16C0 822.64576 73.35424 896 163.84 896h696.32c90.49088 0 163.84-73.35424 163.84-163.84v-696.32c0-90.48576-73.34912-163.84-163.84-163.84z m99.84 864a107.99616 107.99616 0 0 1-96 96H160A107.99616 107.99616 0 0 1 64 736v-704a107.99616 107.99616 0 0 1 96-96h704a107.99104 107.99104 0 0 1 96 96V736zM224 416h576v-64H224v64z m256-320V672h64v-576h-64z"  horiz-adv-x="1024" />

    
    <glyph glyph-name="jiaohuan1" unicode="&#58916;" d="M840.17152 196.72576V855.04h75.0848v-658.31424h-75.0848zM916.0192 766.91456H292.79744V855.04H916.0192v-88.12544z m-38.30272-790.5024l-141.15328 286.40768H1018.88l-141.16352-286.40768zM187.67872 571.26912V-87.04H112.59392V571.26912h75.0848zM113.34144 1.08544h623.21664V-87.04H113.34144v88.12544zM150.8864 790.7072l141.16352-286.4128H9.72288l141.16352 286.4128z"  horiz-adv-x="1024" />

    
    <glyph glyph-name="one-screen" unicode="&#58938;" d="M0 896v-1024h1024v1024h-1024zM958.464-62.464h-892.928v892.928h897.024v-892.928z"  horiz-adv-x="1024" />

    
    <glyph glyph-name="siping1" unicode="&#58910;" d="M0 895.98976v-1023.98976h1023.98976V895.98976H0z m958.454415-958.459535H65.530225V830.454415H962.550374v-892.92419h-4.095959zM-0.00512 416.849592h1023.98976v-65.704303h-1023.98976zM479.145289 896h65.704303v-1023.99488H479.145289z"  horiz-adv-x="1024" />

    
    <glyph glyph-name="shuangpingshu" unicode="&#58911;" d="M0 896v-1024h1024V896H0z m958.464-958.46912H65.53088V830.464H962.56v-892.93312h-4.096zM479.14496 896h65.70496v-1024H479.14496z"  horiz-adv-x="1024" />

    
    <glyph glyph-name="shuangpingheng" unicode="&#58912;" d="M0 896v-1024h1024V896H0z m958.464-958.46912H65.53088V830.464H962.56v-892.93312h-4.096zM-0.00512 416.85504h1024v-65.70496h-1024z"  horiz-adv-x="1024" />

    
    <glyph glyph-name="zantingtingzhi" unicode="&#59099;" d="M735.9 831.1c-51.2 0-96-44.7-96-95.8v-702.6c0-51.1 44.8-95.8 96-95.8s96 44.7 96 95.8V735.3c0 51.1-44.8 95.8-96 95.8z m-447.8 0c-51.2 0-96-44.7-96-95.8v-702.6c0-51.1 44.8-95.8 96-95.8s96 44.7 96 95.8V735.3c-0.1 51.1-44.9 95.8-96 95.8z"  horiz-adv-x="1024" />

    
    <glyph glyph-name="dingweixian" unicode="&#58909;" d="M612.4288 427.62752a23.0656 23.0656 0 0 0-14.99136 5.53984c-9.68704 8.25344-10.76736 22.8864-2.51392 32.57344 1.45408 1.70496 5.04832 5.44256 18.57024 19.38944 9.31328 9.61024 24.73472 25.51808 27.80672 29.01504 20.56704 28.15488 31.4368 61.5168 31.4368 96.512 0 90.3424-73.4976 163.84-163.84 163.84s-163.84-73.4976-163.84-163.84c0-39.168 14.03904-77.07136 39.52128-106.7264 2.86208-3.2512 25.96864-26.62912 32.99328-33.64864a23.04 23.04 0 0 0-32.58368-32.58368c-0.30208 0.30208-30.91456 31.03232-35.35872 36.20352a209.92 209.92 0 0 0-50.65216 136.7552c0 115.74784 94.17216 209.92 209.92 209.92 115.75296 0 209.92-94.17216 209.92-209.92 0-45.09696-14.09536-88.08448-40.76544-124.31872-1.98144-2.688-5.888-6.8864-31.46752-33.27488-7.19872-7.42912-15.36-15.8464-16.7424-17.38752a22.77888 22.77888 0 0 0-17.41312-8.04864zM237.55776-0.4608a23.04 23.04 0 0 0-21.36576 14.40768c-15.69792 38.82496-23.65952 79.91808-23.65952 122.1376 0 166.52288 97.56672 294.92736 193.94048 335.68768a23.04 23.04 0 1 0 17.9456-42.43968c-80.384-34.00192-165.8112-148.33152-165.8112-293.248 0-36.2752 6.83008-71.55712 20.3008-104.86784a23.03488 23.03488 0 0 0-21.3504-31.67744zM767.69792-0.4608a23.03488 23.03488 0 0 0-21.3504 31.67744c13.47072 33.31584 20.3008 68.59264 20.3008 104.86784 0 144.9216-85.43232 259.2512-165.81632 293.248a23.04 23.04 0 0 0 17.9456 42.43968c96.37888-40.76544 193.9456-169.1648 193.9456-335.68768 0-42.21952-7.9616-83.31264-23.65952-122.1376a23.03488 23.03488 0 0 0-21.36576-14.40768zM292.27008 522.24c0-11.31008-7.49056-20.48-16.72704-20.48h-191.1808c-9.2416 0-16.73216 9.16992-16.73216 20.48s7.49056 20.48 16.73216 20.48h191.18592c9.23648 0 16.72192-9.16992 16.72192-20.48zM215.57248 321.77152c0-11.30496-4.93056-20.48-11.01312-20.48H78.64832c-6.08256 0-11.01824 9.17504-11.01824 20.48s4.93056 20.48 11.01824 20.48h125.90592c6.08256 0 11.01824-9.17504 11.01824-20.48zM179.94752 105.93792c0-11.30496-3.74272-20.48-8.36096-20.48h-95.5904c-4.61824 0-8.36608 9.17504-8.36608 20.48s3.74272 20.48 8.36608 20.48h95.5904c4.62336 0 8.36096-9.17504 8.36096-20.48zM728.11008 522.24c0-11.31008 7.49056-20.48 16.72704-20.48h191.18592c9.2416 0 16.73216 9.16992 16.73216 20.48s-7.49056 20.48-16.73216 20.48h-191.18592c-9.23648 0-16.72704-9.16992-16.72704-20.48zM804.80768 321.77152c0-11.30496 4.93056-20.48 11.01312-20.48h125.90592c6.08768 0 11.01824 9.17504 11.01824 20.48s-4.93056 20.48-11.01824 20.48H815.8208c-6.08256 0-11.01312-9.17504-11.01312-20.48zM840.42752 105.93792c0-11.30496 3.7376-20.48 8.36096-20.48h95.59552c4.61824 0 8.36608 9.17504 8.36608 20.48s-3.74272 20.48-8.36608 20.48h-95.59552c-4.61824 0-8.36096-9.17504-8.36096-20.48zM616.09472 522.24c0-11.31008-7.49056-20.48-16.73216-20.48h-191.1808c-9.2416 0-16.73216 9.16992-16.73216 20.48s7.49056 20.48 16.73216 20.48h191.1808c9.2416 0 16.73216-9.16992 16.73216-20.48zM686.08 321.77152c0-11.31008 0-20.48-27.2128-20.48H347.94496c-25.92768 0-27.20768 9.16992-27.20768 20.48s3.74784 21.60128 27.20768 20.48h310.92224c23.3728 0.08192 27.2128-9.16992 27.2128-20.48zM748.90752 116.97152c0-11.31008 0-20.48-35.56352-20.48H307.02592c-30.54592 0-35.5584 9.16992-35.5584 20.48s4.37248 20.48 35.5584 20.48h406.31808c26.496 2.70848 35.56352-9.16992 35.56352-20.48z"  horiz-adv-x="1024" />

    
    <glyph glyph-name="xulie2" unicode="&#59016;" d="M373.556904 307.005418 63.154365 307.005418c-34.30327 0-62.10957-27.801183-62.10957-62.089104L1.044796-65.399243c0-34.287921 27.806299-62.089104 62.10957-62.089104l310.261323 0c34.298154 0 62.107523 27.801183 62.107523 62.089104L435.523211 245.054461C435.523211 279.205259 407.714865 307.005418 373.556904 307.005418zM383.024533-74.871989 53.543474-74.871989 53.543474 254.670469l329.48106 0L383.024533-74.871989zM961.566042 307.005418 651.163503 307.005418c-34.301224 0-62.10957-27.801183-62.10957-62.089104L589.053933-65.399243c0-34.287921 27.808346-62.089104 62.10957-62.089104l310.261323 0c34.298154 0 62.107523 27.801183 62.107523 62.089104L1023.532349 245.054461C1023.672542 279.205259 995.867266 307.005418 961.566042 307.005418zM971.033671-74.871989 641.552611-74.871989 641.552611 254.670469l329.48106 0L971.033671-74.871989zM63.154365 460.482929l310.261323 0c34.298154 0 62.107523 27.801183 62.107523 62.092174L435.523211 832.88452c0 34.290991-27.808346 62.092174-61.966307 62.092174L63.154365 894.976694c-34.30327 0-62.10957-27.801183-62.10957-62.092174l0-310.310442C1.044796 488.284111 28.850072 460.482929 63.154365 460.482929zM53.543474 842.501552l329.48106 0 0-329.542458L53.543474 512.959094 53.543474 842.501552zM961.566042 894.976694 651.163503 894.976694c-34.301224 0-62.10957-27.801183-62.10957-62.092174l0-310.310442c0-34.290991 27.808346-62.092174 62.10957-62.092174l310.261323 0c34.298154 0 62.107523 27.801183 62.107523 62.092174L1023.532349 832.88452C1023.672542 867.175511 995.867266 894.976694 961.566042 894.976694zM971.033671 512.95807 641.552611 512.95807 641.552611 842.501552l329.48106 0L971.033671 512.95807zM1.297552 383.460718c0-14.051017 7.66354-25.545816 17.028838-25.545816l987.754494 0c9.365298 0 17.028838 11.494799 17.028838 25.545816 0 14.048971-7.66354 25.545816-17.028838 25.545816L18.326391 409.006534C8.961092 409.006534 1.297552 397.509688 1.297552 383.460718zM511.992837 306.80178c-14.051017 0-25.545816-7.66354-25.545816-17.028838l0-399.834384c0-9.368368 11.494799-17.031908 25.545816-17.031908s25.545816 7.66354 25.545816 17.031908L537.538653 289.771919C537.539676 299.13824 526.044878 306.80178 511.992837 306.80178zM511.992837 460.822666c14.051017 0 25.545816 7.66354 25.545816 17.031908L537.538653 877.688959c0 9.365298-11.494799 17.028838-25.545816 17.028838s-25.545816-7.66354-25.545816-17.028838l0-399.834384C486.447021 468.486206 497.941819 460.822666 511.992837 460.822666z"  horiz-adv-x="1024" />

    
    <glyph glyph-name="tiaochuang" unicode="&#59040;" d="M512.902998 841.820106C260.063492 841.820106 52.373898 635.936508 52.373898 381.291005S260.063492-79.238095 512.902998-79.238095s460.529101 205.883598 460.529101 460.5291S767.548501 841.820106 512.902998 841.820106z m0-868.684304C288.959436-26.864198 104.747795 155.541446 104.747795 381.291005S288.959436 789.446208 512.902998 789.446208 921.058201 607.040564 921.058201 381.291005 738.652557-26.864198 512.902998-26.864198zM512.902998 708.176367v-653.770723c180.599647 0 326.885362 146.285714 326.885362 326.885361 1.805996 180.599647-146.285714 326.885362-326.885362 326.885362z"  horiz-adv-x="1024" />

    
    <glyph glyph-name="play" unicode="&#59025;" d="M903.68 503.808c104.448-66.048 104.448-173.056 0-239.104L333.312-96.76800000000003c-104.448-66.048-188.928-23.04-188.928 95.744V769.024c0 118.784 84.48 161.792 188.928 95.744l570.368-360.96z"  horiz-adv-x="1024" />

    
    <glyph glyph-name="other-copy" unicode="&#59940;" d="M517.6 215.20000000000005c-31.2 0-56.8 25.6-56.8 56.8s25.6 56.8 56.8 56.8c31.2 0 56.8-25.6 56.8-56.8s-25.6-56.8-56.8-56.8z m-237.6 0c-31.2 0-56.8 25.6-56.8 56.8s24.8 56 56.8 56 56.8-25.6 56.8-56.8-26.4-56-56.8-56z m475.2 0c-31.2 0-56.8 25.6-56.8 56.8s25.6 56.8 56.8 56.8c31.2 0 56.8-25.6 56.8-56.8s-24.8-56.8-56.8-56.8zM84-84C37.6-84 0-46.39999999999998 0 0V761.6C0 807.2 33.6 844.8 74.4 844.8h286.4L496 628h444c46.4 0 84-37.6 84-84v-544.8c0-46.4-37.6-84-84-84 0 0.8-856 0.8-856 0.8z m0 656.8c-16 0-28.8-12.8-28.8-28.8v-544.8c0-16 12.8-28.8 28.8-28.8h856c16 0 28.8 12.8 28.8 28.8V544c0 16-12.8 28.8-28.8 28.8h-856zM74.4 790.4c-10.4 0-20-13.6-20-28.8v-139.2c9.6 3.2 19.2 5.6 28.8 5.6h348L330.4 790.4h-256z"  horiz-adv-x="1024" />

    
    <glyph glyph-name="point" unicode="&#59041;" d="M512 384m-128 0a4 4 0 1 1 256 0 4 4 0 1 1-256 0Z"  horiz-adv-x="1024" />

    
    <glyph glyph-name="iconfontadd3" unicode="&#59015;" d="M791.336 9.877h-557.93c-51.33 0-92.96 41.673-92.96 93.045v558.146c0 51.372 41.63 93.045 92.96 93.045h557.93c51.373 0 93.003-41.673 93.003-93.045v-558.145c-0-51.373-41.631-93.046-93.003-93.046zM837.859 661.068c0 25.707-20.815 46.523-46.523 46.523l-557.93-0c-25.665 0-46.48-20.815-46.48-46.523v-558.145c0-25.707 20.815-46.523 46.48-46.523h557.93c25.707 0 46.523 20.815 46.523 46.523v558.145zM651.896 358.756h-116.264v-116.307c0-12.832-10.387-23.262-23.262-23.262-12.832 0-23.219 10.429-23.219 23.262l0 116.307h-116.264c-12.832 0-23.219 10.387-23.219 23.219 0 12.875 10.387 23.262 23.219 23.262h116.264v116.306c0 12.832 10.387 23.262 23.219 23.262 12.875 0 23.262-10.429 23.262-23.262v-116.307h116.264c12.832 0 23.219-10.387 23.219-23.262-0-12.832-10.387-23.218-23.219-23.218z"  horiz-adv-x="1024" />

    
    <glyph glyph-name="shuaxin2" unicode="&#58993;" d="M698.048 95.552c-56.384-39.68-122.56-59.52-189.952-58.752-8.96 0.128-17.792 0.832-26.56 1.472-3.584 0.384-7.168 0.96-10.688 1.472a266.56 266.56 0 0 0-20.48 3.136c-4.224 0.704-8.32 1.92-12.352 2.88a296.128 296.128 0 0 0-19.648 4.8c-3.072 1.152-5.952 2.112-8.96 3.328a246.848 246.848 0 0 0-22.08 8l-4.8 1.92a553.6 553.6 0 0 0-24.768 12.16 326.656 326.656 0 0 0-95.296 78.72 324.992 324.992 0 0 0-74.816 207.808h85.44L136.576 568.192 0 362.496h85.248c0-90.112 28.096-173.76 75.584-242.944 0.64-1.024 0.96-2.112 1.6-3.008 4.864-7.168 10.432-13.632 15.68-20.224 1.984-2.432 3.776-4.928 5.888-7.616 7.68-9.344 16-18.24 24.512-27.072l2.304-2.368c28.608-28.8 60.8-52.928 96-72.32l2.816-1.6c10.112-5.44 20.48-10.496 30.976-15.104l7.808-3.456a703.936 703.936 0 0 1 40.896-14.72c8.128-2.368 16.384-4.48 24.832-6.4 5.632-1.28 11.008-2.752 16.768-3.84 2.304-0.512 4.48-1.28 6.784-1.472 8-1.472 16-2.176 23.808-3.2 2.944-0.448 5.76-0.96 8.576-1.28a422.08 422.08 0 0 1 286.528 75.52 51.648 51.648 0 0 1 12.672 71.552 50.752 50.752 0 0 1-71.232 12.608z m240.448 307.84c0 89.92-27.712 173.44-75.008 242.304l-1.728 3.456a525.696 525.696 0 0 1-18.816 24.32 30.016 30.016 0 0 0-2.112 2.944 426.816 426.816 0 0 1-159.36 120.128l-5.12 2.304a511.68 511.68 0 0 1-30.208 11.072c-3.52 1.152-7.168 2.496-10.88 3.584a423.872 423.872 0 0 1-26.752 7.04c-4.992 1.088-10.112 2.368-15.104 3.392-2.496 0.448-4.736 1.216-7.36 1.728-6.784 1.088-13.376 1.728-20.16 2.56-4.736 0.512-9.216 1.216-13.952 1.728a440.64 440.64 0 0 1-33.92 1.728C516.032 831.68 513.984 832 512 832a421.504 421.504 0 0 1-244.672-77.568 51.584 51.584 0 0 1-12.48-71.68 51.072 51.072 0 0 1 71.36-12.48 320.448 320.448 0 0 0 216.768 57.216c2.944-0.192 5.696-0.64 8.576-1.088 7.68-0.96 15.36-1.984 22.912-3.584 3.264-0.64 6.656-1.472 9.792-2.176 7.488-1.728 14.72-3.456 21.952-5.632 2.368-0.64 4.544-1.472 6.784-2.368 8.32-2.688 16.512-5.568 24.32-8.96 0.896-0.192 1.728-0.832 2.496-1.088 47.808-20.608 89.6-52.352 122.368-92.16 0.064-0.128 0.192-0.384 0.512-0.64a325.632 325.632 0 0 0 73.664-206.4h-85.44l136.768-205.76L1024 403.392h-85.504z"  horiz-adv-x="1024" />

    
    <glyph glyph-name="rectangle" unicode="&#59043;" d="M0 0V768h1024v-768H0zM960 704H64v-640h896V704z"  horiz-adv-x="1024" />

    
    <glyph glyph-name="tuoyuan" unicode="&#59067;" d="M512 96C246.4 96 32 240 32 416S246.4 736 512 736s480-144 480-320-214.4-320-480-320z m0 576C281.6 672 96 556.8 96 416s185.6-256 416-256 416 115.2 416 256-185.6 256-416 256z"  horiz-adv-x="1024" />

    
    <glyph glyph-name="jianshao" unicode="&#59486;" d="M860.16-128H163.84A163.84 163.84 0 0 0 0 35.84V732.16A163.84 163.84 0 0 0 163.84 896h696.32A163.84 163.84 0 0 0 1024 732.16v-696.32A163.84 163.84 0 0 0 860.16-128zM960 736a108 108 0 0 1-96 96H160a108 108 0 0 1-96-96v-704a108 108 0 0 1 96-96h704a108 108 0 0 1 96 96V736zM224 416h576v-64H224v64z"  horiz-adv-x="1024" />

    
    <glyph glyph-name="refresh" unicode="&#59022;" d="M888.23000001 503.917L718.385 503.91699999c-21.66789999 0-39.1942 17.5561-39.1942 39.19610001 0 21.6382 17.5273 39.1942 39.1942 39.19419999l68.1819 1e-8c-61.5039 86.9065-162.641 143.715-277.223 143.715-187.607 0-339.692-152.086-339.692-339.69 0-187.606 152.086-339.691 339.692-339.691 187.606 0 339.691 152.086 339.691 339.691 0 21.6382 17.5264 39.1942 39.19329999 39.1942 21.63999999 0 39.1971-17.5561 39.19710001-39.1942 0-230.899-187.2-418.082-418.082-418.082-230.88499999 0-418.08299999 187.182-418.083 418.082 0 230.898 187.198 418.081 418.083 418.08100001 140.127 0 263.895-69.0866 339.691-174.93500001l0 70.4143c0 21.63999999 17.5264 39.1952 39.1933 39.1952 21.63999999 0 39.1971-17.5552 39.1971-39.1952l0-156.78C927.427 521.473 909.868 503.917 888.23000001 503.917Z"  horiz-adv-x="1024" />

    
    <glyph glyph-name="tools" unicode="&#59023;" d="M130.56-126.29333299999996C58.88-126.29333299999996 0.853333-68.26666699999998 0.853333 3.413332999999966v571.733334c0 71.68 58.026667 129.706667 129.706667 129.706666h186.88v76.8C317.44 844.8 375.466667 896 447.146667 896h127.146666c71.68 0 129.706667-51.2 129.706667-114.346667v-76.8h187.733333c71.68 0 129.706667-58.026667 129.706667-129.706666v-571.733334c0-71.68-58.026667-129.706667-129.706667-129.706666H130.56z m-67.413333 129.706666c0-33.28 34.133333-68.266667 67.413333-68.266666h762.026667c33.28 0 68.266667 34.133333 68.266666 68.266666l0.853334 384.853334H642.56v-68.266667c0-36.693333-29.866667-66.56-66.56-66.56H448.853333c-36.693333 0-66.56 29.866667-66.56 66.56v68.266667H63.146667v-384.853334z m523.946666 305.493334v213.333333H436.906667v-213.333333h150.186666zM381.44 442.88v68.266667c0 36.693333 29.866667 66.56 66.56 66.56h127.146667c36.693333 0 66.56-29.866667 66.56-66.56V443.733333h319.146666l-0.853333 130.56c0 34.133333-34.133333 68.266667-68.266667 68.266667H129.706667c-33.28 0-67.413333-34.133333-67.413334-67.413333V443.733333h319.146667z m261.973333 261.973333V792.746667c0 22.186667-33.28 44.373333-67.413333 44.373333h-128c-31.573333 0-68.266667-19.626667-68.266667-44.373333v-87.04h263.68z m0 0"  horiz-adv-x="1024" />

    
    <glyph glyph-name="yidong1" unicode="&#59044;" d="M512.512 11.264c-14.848 0-26.624 11.776-26.624 26.624v244.736c0 14.848 11.776 26.624 26.624 26.624 14.848 0 26.624-11.776 26.624-26.624v-244.736c0.512-14.848-11.776-26.624-26.624-26.624z m-1.536 447.488c-14.848 0-26.624 11.776-26.624 26.624V730.112c0 14.848 11.776 26.624 26.624 26.624 14.848 0 26.624-11.776 26.624-26.624v-244.736c0.512-14.336-11.776-26.624-26.624-26.624zM361.984 655.872c-10.24 10.752-10.24 27.648 0 37.888l131.072 130.048c10.752 10.24 27.648 10.24 37.888 0L660.48 693.76c10.24-10.752 10.24-27.648 0-37.888-10.752-10.24-27.648-10.24-37.888 0l-91.648 92.16c-10.24 10.752-27.648 10.752-37.888 0L399.872 655.36c-10.752-10.24-27.648-10.24-37.888 0.512z m224.256-271.872c0 14.848 11.776 26.624 26.624 26.624h244.736c14.848 0 26.624-11.776 26.624-26.624 0-14.848-11.776-26.624-26.624-26.624h-244.224c-14.848 0-27.136 11.776-27.136 26.624zM783.36 533.504c10.752 10.24 27.648 10.24 37.888 0l130.048-131.072c10.24-10.752 10.24-27.648 0-37.888l-130.048-129.536c-10.752-10.24-27.648-10.24-37.888 0s-10.24 27.648 0 37.888l92.16 91.648c10.752 10.24 10.752 27.648 0 37.888l-92.672 93.184c-10.24 10.24-10.24 27.648 0.512 37.888zM437.248 384c0 14.848-11.776 26.624-26.624 26.624H165.888c-14.848 0-26.624-11.776-26.624-26.624 0-14.848 11.776-26.624 26.624-26.624h244.736c14.848 0 26.624 11.776 26.624 26.624zM240.64 533.504c-10.752 10.24-27.648 10.24-37.888 0L72.192 401.92c-10.24-10.752-10.24-27.648 0-37.888l130.048-129.536c10.752-10.24 27.648-10.24 37.888 0 10.24 10.752 10.24 27.648 0 37.888l-92.16 91.648c-10.752 10.24-10.752 27.648 0 37.888L240.64 495.616c10.24 10.24 10.24 27.648 0 37.888zM363.008 112.64c-10.24-10.752-10.24-27.648 0-37.888l131.072-130.048c10.752-10.24 27.648-10.24 37.888 0l129.536 130.048c10.24 10.752 10.24 27.648 0 37.888s-27.648 10.24-37.888 0L532.48 20.48c-10.24-10.752-27.648-10.752-37.888 0l-93.184 92.672c-10.752 10.24-27.648 10.24-38.4-0.512z m43.008 301.568c-5.12 0-9.216 4.096-9.216 9.728V488.96c0 5.12 4.096 9.216 9.728 9.216H471.04c5.12 0 9.216-4.096 9.216-9.728 0-5.12-4.096-9.216-9.728-9.216H424.96c-5.12 0-9.216-4.096-9.728-9.216v-46.08c0-5.12-4.096-9.728-9.216-9.728z m135.168 74.752c0 5.12 4.096 9.216 9.728 9.216h65.024c5.12 0 9.216-4.096 9.216-9.728v-64.512c0-5.12-4.096-9.216-9.728-9.216s-9.216 4.096-9.216 9.728v45.568c0 5.12-4.096 9.216-9.216 9.728h-46.08c-5.632-0.512-9.728 4.096-9.728 9.216z m-135.168-135.168c-5.12 0-9.216-4.096-9.216-9.728v-65.024c0-5.12 4.096-9.216 9.728-9.216H471.04c5.12 0 9.216 4.096 9.216 9.728s-4.096 9.216-9.728 9.216H424.96c-5.12 0-9.216 4.096-9.728 9.216v46.08c0.512 5.632-4.096 9.728-9.216 9.728z m135.168-74.24c0-5.12 4.096-9.216 9.728-9.216h65.024c5.12 0 9.216 4.096 9.216 9.728v64.512c0 5.12-4.096 9.216-9.728 9.216-5.12 0-9.216-4.096-9.216-9.728v-45.568c0-5.12-4.096-9.216-9.216-9.728h-46.08c-5.632 0.512-9.728-4.096-9.728-9.216z"  horiz-adv-x="1024" />

    
    <glyph glyph-name="jiaohuan" unicode="&#59309;" d="M789.76 248.32V726.4h64v-478.08zM854.4 662.4h-531.2v64h531.2zM821.76 88.32l-120.32 208h240.64l-120.32-208zM233.6 520.32v-478.08h-64V520.32zM170.24 106.24h531.2v-64h-531.2zM202.24 679.68l120.32-208H81.92l120.32 208z"  horiz-adv-x="1024" />

    
    <glyph glyph-name="yidong" unicode="&#59816;" d="M960.4 384.4L781.2 533.7v-119.4H542.3V653.1h119.4L512.4 832.3 363.1 653.1h119.4v-238.9H243.7V533.7L64.5 384.4l179.2-149.3V354.5h238.9v-238.9H363.1l149.3-179.2 149.3 179.2H542.3V354.5h238.9v-119.4l179.2 149.3z"  horiz-adv-x="1024" />

    
    <glyph glyph-name="length" unicode="&#59045;" d="M685.5625 150.10000000000002l-407.5 407.5a86.25 86.25 0 0 0-22.1-2.9H85.3375A85.3375 85.3375 0 0 0 0 640V810.6625A85.325 85.325 0 0 0 85.3375 896H256a85.3375 85.3375 0 0 0 85.3375-85.3375V640a85.775 85.775 0 0 0-2.9-22.1l407.5-407.5a86.35 86.35 0 0 0 22.1 2.9h170.625a85.3375 85.3375 0 0 0 85.3375-85.3v-170.6625a85.3125 85.3125 0 0 0-85.3375-85.3375H768a85.3375 85.3375 0 0 0-85.3375 85.3375V128a85.9125 85.9125 0 0 0 2.9 22.1z m84.15-22.1l-1.7125-1.7125v-168.95h170.6625V128zM85.3375 810.6625V640H256V810.6625z"  horiz-adv-x="1024" />

    
    <glyph glyph-name="zoom" unicode="&#59176;" d="M147.2 192h83.2c70.4-76.8 172.8-128 288-128 211.2 0 384 172.8 384 384s-172.8 384-384 384c-115.2 0-217.6-51.2-288-128H147.2C230.4 819.2 364.8 896 512 896c249.6 0 448-198.4 448-448s-198.4-448-448-448c-153.6 0-288 76.8-364.8 192zM32 480h192c19.2 0 32-12.8 32-32s-12.8-32-32-32h-192C12.8 416 0 428.8 0 448s12.8 32 32 32zM416 480h192c19.2 0 32-12.8 32-32s-12.8-32-32-32h-192c-19.2 0-32 12.8-32 32s12.8 32 32 32zM128 576c19.2 0 32-12.8 32-32v-192c0-19.2-12.8-32-32-32s-32 12.8-32 32v192c0 19.2 12.8 32 32 32zM985.6-64c-12.8 0-19.2 6.4-25.6 12.8l-160 160c-12.8 12.8-12.8 38.4 0 51.2 12.8 12.8 38.4 12.8 51.2 0l160-160c6.4-6.4 12.8-19.2 12.8-25.6s-6.4-19.2-12.8-25.6c-6.4-6.4-12.8-12.8-25.6-12.8z"  horiz-adv-x="1024" />

    
    <glyph glyph-name="angle" unicode="&#59438;" d="M930.816 84.99199999999996h-409.6c-8.704 108.544-61.952 211.456-150.528 284.16l271.872 328.192c13.312 17.408 8.704 34.816-4.608 47.616-17.408 12.8-34.816 8.704-48.128-4.096L69.12 106.49599999999998c-17.408-21.504-13.312-56.32 8.704-73.728 8.704-8.704 17.408-12.8 30.72-12.8l821.76-4.096c22.016 0 34.816 12.8 34.816 34.816s-16.896 34.304-34.304 34.304zM327.168 316.928c72.192-59.904 116.736-143.36 125.44-231.936h-317.44l192 231.936z"  horiz-adv-x="1024" />

    
    <glyph glyph-name="measure" unicode="&#59033;" d="M827.810909 500.829091l-226.676364-226.071273-29.370181-90.112 91.461818 30.766546 225.559273 225.652363-60.974546 59.764364z m32.954182 32.907636l60.928-59.764363 47.755636 47.755636-58.833454 61.719273-49.803637-49.710546zM256-58.18181800000002h139.636364V11.636363999999958a23.272727 23.272727 0 1 0 46.545454 0v-69.818182h139.636364V11.636363999999958a23.272727 23.272727 0 1 0 46.545454 0v-69.818182h139.636364V11.636363999999958a23.272727 23.272727 0 1 0 46.545455 0v-69.818182h46.545454v320.977454a23.272727 23.272727 0 0 0 46.545455 0v-330.007272c0-18.432-19.874909-37.515636-37.562182-37.515637H60.788364a37.608727 37.608727 0 0 0-37.515637 37.794909V138.24c0 20.759273 16.709818 37.701818 37.515637 37.701818H425.890909a23.272727 23.272727 0 1 0 0-46.545454H69.818182v-187.578182h139.636363V11.636363999999958a23.272727 23.272727 0 1 0 46.545455 0v-69.818182z m418.909091 884.363636v-314.926545a23.272727 23.272727 0 1 0-46.545455 0V833.6756359999999c0 21.131636 16.477091 39.051636 37.794909 39.051637h203.68291c21.317818 0 37.794909-17.92 37.794909-39.098182v-127.674182a23.272727 23.272727 0 1 0-46.545455 0V826.181818h-186.181818zM116.363636 11.636363999999958a23.272727 23.272727 0 1 0 46.545455 0v-46.545455a23.272727 23.272727 0 1 0-46.545455 0v46.545455z m186.181819 0a23.272727 23.272727 0 1 0 46.545454 0v-46.545455a23.272727 23.272727 0 1 0-46.545454 0v46.545455z m186.181818 0a23.272727 23.272727 0 1 0 46.545454 0v-46.545455a23.272727 23.272727 0 1 0-46.545454 0v46.545455z m186.181818 0a23.272727 23.272727 0 1 0 46.545454 0v-46.545455a23.272727 23.272727 0 1 0-46.545454 0v46.545455z m-161.745455 143.36l45.474909 139.496727a23.272727 23.272727 0 0 0 5.678546 9.309091l330.286545 329.402182a23.272727 23.272727 0 0 0 33.28-0.418909l90.903273-95.418182a23.272727 23.272727 0 0 0-0.372364-32.488728l-326.144-326.190545a23.272727 23.272727 0 0 0-9.029818-5.585455l-140.567272-47.336727a23.272727 23.272727 0 0 0-29.509819 29.277091z"  horiz-adv-x="1025" />

    
    <glyph glyph-name="hide" unicode="&#59046;" d="M768 709.12l75.52 113.92a32 32 0 0 1-53.12 35.2L707.84 736A530.56 530.56 0 0 1 0 384a533.76 533.76 0 0 1 256-325.12l-73.6-113.92a32 32 0 0 1 53.12-35.2l81.28 122.24A530.56 530.56 0 0 1 1024 384a533.76 533.76 0 0 1-256 325.12zM64 384a469.12 469.12 0 0 0 448 325.76 462.72 462.72 0 0 0 158.72-28.8l-64-97.28a220.8 220.8 0 0 1-241.92-364.16l-71.04-106.24A468.48 468.48 0 0 0 64 384z m336-110.72a157.44 157.44 0 0 0 170.24 256z m224 221.44a157.44 157.44 0 0 0-170.24-256zM512 58.24000000000001a462.72 462.72 0 0 0-158.72 28.8l64 97.28a220.8 220.8 0 0 1 241.92 364.16l71.04 106.88A468.48 468.48 0 0 0 960 384a469.12 469.12 0 0 0-448-325.76z"  horiz-adv-x="1024" />

    
    <glyph glyph-name="close" unicode="&#59047;" d="M972.28602785-88.40290607999998a37.36037452 37.36037452 0 0 0-26.40858074 10.95179378L46.27691141 822.14942341a37.28270222 37.28270222 0 1 0 52.81716148 52.81716148l899.678208-899.678208a37.43804682 37.43804682 0 0 0-26.48625304-63.69128297M72.68549215-88.40290607999998a37.28270222 37.28270222 0 0 0-26.40858074 63.76895526L945.95511941 874.96658489a37.36037452 37.36037452 0 0 0 52.73948918-52.81716148L99.09407289-77.45111229999998a37.28270222 37.28270222 0 0 0-26.40858074-10.95179378"  horiz-adv-x="1024" />

    
    <glyph glyph-name="clear" unicode="&#59049;" d="M832 384H192a128 128 0 0 0 0 256h192V768a128 128 0 0 0 256 0v-128h192a128 128 0 0 0 0-256zM192 576a64 64 0 0 1 0-128h640a64 64 0 0 1 0 128H576V768a64 64 0 0 1-128 0v-192zM832-128H192a64 64 0 0 0-64 64V448h768v-512a64 64 0 0 0-64-64zM192 384v-448h640V384zM608 192a32 32 0 0 0 32-32v-256a32 32 0 0 0-32-32 32 32 0 0 0-32 32v256a32 32 0 0 0 32 32zM416 192a32 32 0 0 0 32-32v-256a32 32 0 0 0-32-32 32 32 0 0 0-32 32v256a32 32 0 0 0 32 32z"  horiz-adv-x="1024" />

    
    <glyph glyph-name="slow-left-copy" unicode="&#59938;" d="M377.200222 383.89620599l396.55898099 407.17112301a62.555783 62.555783 0 0 1 1e-8 86.898546 58.692591 58.692591 0 0 1-84.617867 0l-438.82137-450.597124a62.555783 62.555783 0 0 1 0-86.945091L689.141336-110.03382998999996a58.78568 58.78568 0 0 1 84.617867-1e-8 62.555783 62.555783 0 0 1 0 86.898546c0-0.093089-396.558981 407.031489-396.558981 407.03148999z"  horiz-adv-x="1024" />

    
    <glyph glyph-name="fast-right-copy" unicode="&#59939;" d="M234.06367864 782.4695590599999L665.73293978 384l-431.66926114-398.46955906a54.84532389 54.84532389 0 1 1 74.40682255-80.62262493l475.32613985 438.76258956a54.84532389 54.84532389 0 0 1 0 80.62262489l-475.32613985 438.7625911a54.84532389 54.84532389 0 1 1-74.40682255-80.62262647"  horiz-adv-x="1024" />

    
    <glyph glyph-name="icon-" unicode="&#59004;" d="M213.333333 85.333333a21.333333 21.333333 0 0 0-21.333333 21.333334 256 256 0 0 0 418.986667 197.546666 21.76 21.76 0 0 0 2.56-30.293333 20.906667 20.906667 0 0 0-29.866667-2.56 213.333333 213.333333 0 0 1-349.013333-162.56 21.333333 21.333333 0 0 0-21.333334-23.466667zM448 362.666667a170.666667 170.666667 0 1 0 170.666667 170.666666 170.666667 170.666667 0 0 0-170.666667-170.666666z m0 298.666666a128 128 0 1 1 128-128 128 128 0 0 1-128 128zM554.666667-128H42.666667a42.666667 42.666667 0 0 0-42.666667 42.666667V853.333333a42.666667 42.666667 0 0 0 42.666667 42.666667h810.666666a42.666667 42.666667 0 0 0 42.666667-42.666667v-469.333333a42.666667 42.666667 0 0 0-85.333333 0V810.666667H85.333333v-853.333334h469.333334a42.666667 42.666667 0 0 0 0-85.333333zM832-85.333333a149.333333 149.333333 0 1 0 149.333333 149.333333 149.333333 149.333333 0 0 0-149.333333-149.333333z m0 213.333333a64 64 0 1 1 64-64 64 64 0 0 1-64 64z"  horiz-adv-x="1024" />

    


  </font>
</defs>
</svg>
